Coordinates
version=1
nRows=7
nColumns=40
inDegrees=yes

Units are S.I. units (second, meters, Newtons, ...)
Angles are in degrees.

endheader
time	pelvis_tilt	pelvis_list	pelvis_rotation	pelvis_tx	pelvis_ty	pelvis_tz	hip_flexion_r	hip_adduction_r	hip_rotation_r	knee_angle_r	knee_angle_r_beta	ankle_angle_r	subtalar_angle_r	mtp_angle_r	hip_flexion_l	hip_adduction_l	hip_rotation_l	knee_angle_l	knee_angle_l_beta	ankle_angle_l	subtalar_angle_l	mtp_angle_l	lumbar_extension	lumbar_bending	lumbar_rotation	arm_flex_r	arm_add_r	arm_rot_r	elbow_flex_r	pro_sup_r	wrist_flex_r	wrist_dev_r	arm_flex_l	arm_add_l	arm_rot_l	elbow_flex_l	pro_sup_l	wrist_flex_l	wrist_dev_l
     11.43000000	     -3.45188039	     -6.52381322	      1.78701773	      1.03005627	      0.92775339	      0.48455465	     14.26821941	      3.64226758	    -17.21504357	     17.01039717	     17.01039717	      7.91870648	     -2.97934302	     -5.35063560	     27.13652556	    -13.65766522	      2.42637968	     68.66605788	     68.66605788	     10.48627240	    -19.24333743	     16.49216472	    -12.39148301	      6.30729701	      4.91831257	     -4.25561557	    -12.38115402	     -4.82630266	     39.68160406	     46.22522288	      0.00000000	      0.00000000	      9.88271738	    -11.15383103	     -6.06131453	     93.87319256	     47.58596756	      0.00000000	      0.00000000
     11.44207143	     -3.53792913	     -6.50914186	      2.30451490	      1.02890942	      0.92838919	      0.48506476	     13.50157066	      3.75239616	    -17.36500641	     16.40490446	     16.40490446	      8.16450633	     -3.01625162	     -5.40433410	     29.21900645	    -13.49860074	      2.90403012	     67.91651898	     67.91651898	     10.85381149	    -19.28271578	     16.96409256	    -12.45578955	      6.13722481	      4.36471021	     -1.56226621	    -12.30920157	     -4.92743241	     41.58616481	     46.16759086	      0.00000000	      0.00000000	      8.05180709	    -11.04846794	     -5.59018390	     90.98182779	     47.50426685	      0.00000000	      0.00000000
     11.45414286	     -3.55370855	     -6.49615179	      2.80733436	      1.02787302	      0.92898491	      0.48552177	     12.62368443	      3.89417202	    -17.57665239	     15.72332120	     15.72332120	      8.39876536	     -3.10712315	     -5.43377860	     31.06494307	    -13.32577514	      3.26305180	     66.92580673	     66.92580673	     11.20460494	    -19.31392013	     17.53187825	    -12.53417678	      5.99048496	      3.99854055	      0.88806379	    -12.33539357	     -4.90163693	     44.09100187	     46.07837240	      0.00000000	      0.00000000	      6.65234876	    -10.69392194	     -5.27919991	     87.38658400	     47.42532450	      0.00000000	      0.00000000
     11.46621429	     -3.58195290	     -6.45518345	      3.28810190	      1.02674147	      0.92949318	      0.48577243	     11.80164074	      3.99100247	    -17.72198791	     15.08886426	     15.08886426	      8.52155719	     -3.26314075	     -5.65486300	     32.77317513	    -13.02443435	      3.59928811	     65.68257451	     65.68257451	     11.70610426	    -19.32866941	     18.79774499	    -12.65176482	      5.91341476	      4.81473247	      1.82048033	    -13.05984022	     -4.41331153	     48.72382270	     45.86798519	      0.00000000	      0.00000000	      6.65487730	     -9.38728925	     -4.89777889	     81.77209877	     47.34670889	      0.00000000	      0.00000000
     11.47828571	     -3.61630501	     -6.42729550	      3.81384246	      1.02559754	      0.92986525	      0.48594896	     11.02041263	      4.09408239	    -17.91795786	     14.51023750	     14.51023750	      8.76838318	     -3.37149547	     -5.62102509	     34.30064547	    -12.67159883	      3.93674616	     64.05517121	     64.05517121	     11.74942736	    -19.34334609	     18.98776326	    -12.77566932	      5.79306547	      4.21348916	      4.46364276	    -12.99168538	     -4.59083876	     51.22999652	     45.79452508	      0.00000000	      0.00000000	      5.14586523	     -9.46425401	     -4.25022560	     78.71189878	     47.25201420	      0.00000000	      0.00000000
     11.49035714	     -3.68469378	     -6.39102614	      4.28745099	      1.02443862	      0.93010901	      0.48589593	     10.27612189	      4.18630286	    -18.05637334	     13.91366249	     13.91366249	      8.94223272	     -3.50875144	     -5.72157425	     35.67297290	    -12.22839856	      4.24528950	     62.10678417	     62.10678417	     11.78715381	    -19.32928432	     19.25164193	    -12.84139605	      5.74622928	      4.86038050	      5.69503494	    -13.75926662	     -4.44007826	     55.55285512	     45.62882440	      0.00000000	      0.00000000	      5.38179653	     -8.45900170	     -3.72369947	     72.65837620	     47.14944258	      0.00000000	      0.00000000
     11.50242857	     -3.75645193	     -6.32263982	      4.79056767	      1.02322388	      0.93023126	      0.48565965	      9.60040739	      4.21507943	    -18.22984066	     13.44407323	     13.44407323	      9.20904452	     -3.64275251	     -5.70924708	     36.84722605	    -11.64793150	      4.57988582	     59.78820201	     59.78820201	     11.70141686	    -19.28345393	     19.28424153	    -12.94200037	      5.61553119	      4.10049793	      8.50511744	    -13.56537657	     -4.72255942	     58.08049384	     45.56319030	      0.00000000	      0.00000000	      3.91010329	     -8.58413015	     -3.17313002	     69.64347209	     47.05791180	      0.00000000	      0.00000000
